<?xml version="1.0" encoding="UTF-8"?>
<svg id="Calque_1" xmlns="http://www.w3.org/2000/svg" xmlns:xlink="http://www.w3.org/1999/xlink" version="1.1" viewBox="0 0 22.1 22.1">
  <!-- Generator: Adobe Illustrator 29.3.1, SVG Export Plug-In . SVG Version: 2.1.0 Build 151)  -->
  <defs>
    <style>
      .st0 {
        fill: none;
      }

      .st1 {
        fill: #1d1d1d;
        fill-rule: evenodd;
      }
    </style>
  </defs>
  <g id="Icons">
    <g id="Outlined">
      <g id="Communication">
        <g id="Outlined-_x2F_-Communication-_x2F_-comment">
          <g>
            <polygon id="Path" class="st0" points="-1 -1 23 -1 23 23 -1 23 -1 -1"/>
            <path id="_xD83D__xDD39_-Icon-Color" class="st1" d="M21,3c0-1.1-.9-2-2-2H3c-1.1,0-2,.9-2,2v12c0,1.1.9,2,2,2h14l4,4V3ZM19,3v13.2l-1.2-1.2H3V3h16ZM5,11h12v2H5v-2ZM5,8h12v2H5v-2ZM5,5h12v2H5v-2Z"/>
          </g>
        </g>
      </g>
    </g>
  </g>
</svg>