<?xml version="1.0" encoding="UTF-8"?>
<svg id="Calque_1" xmlns="http://www.w3.org/2000/svg" xmlns:xlink="http://www.w3.org/1999/xlink" version="1.1" viewBox="0 0 22 22">
  <!-- Generator: Adobe Illustrator 29.3.1, SVG Export Plug-In . SVG Version: 2.1.0 Build 151)  -->
  <defs>
    <style>
      .st0 {
        fill: none;
      }

      .st1 {
        fill: #1d1d1d;
        fill-rule: evenodd;
      }
    </style>
  </defs>
  <g id="Icons">
    <g id="Outlined">
      <g id="Action">
        <g id="Outlined-_x2F_-Action-_x2F_-help_x5F_outline">
          <g>
            <polygon id="Path" class="st0" points="-1 -1 23 -1 23 23 -1 23 -1 -1"/>
            <path id="_xD83D__xDD39_-Icon-Color" class="st1" d="M10,17h2v-2h-2v2ZM11,1C5.5,1,1,5.5,1,11s4.5,10,10,10,10-4.5,10-10S16.5,1,11,1ZM11,19c-4.4,0-8-3.6-8-8S6.6,3,11,3s8,3.6,8,8-3.6,8-8,8ZM11,5c-2.2,0-4,1.8-4,4h2c0-1.1.9-2,2-2s2,.9,2,2c0,2-3,1.8-3,5h2c0-2.2,3-2.5,3-5s-1.8-4-4-4Z"/>
          </g>
        </g>
      </g>
    </g>
  </g>
</svg>